<?xml version="1.0" standalone="no"?>
<!DOCTYPE svg PUBLIC "-//W3C//DTD SVG 20010904//EN"
 "http://www.w3.org/TR/2001/REC-SVG-20010904/DTD/svg10.dtd">
<svg version="1.0" xmlns="http://www.w3.org/2000/svg"
 width="100.000000pt" height="100.000000pt" viewBox="0 0 100.000000 100.000000"
 preserveAspectRatio="xMidYMid meet">

<g transform="translate(0.000000,100.000000) scale(0.100000,-0.100000)"
fill="#000000" stroke="none">
<path d="M0 500 l0 -500 500 0 500 0 0 500 0 500 -500 0 -500 0 0 -500z m342
163 c21 -24 31 -173 12 -173 -7 0 -16 5 -19 10 -4 7 -14 5 -28 -5 -46 -32 -97
-8 -97 45 0 37 32 60 82 60 35 0 37 2 29 23 -7 19 -16 22 -55 21 -30 0 -46 4
-46 12 0 28 99 34 122 7z m78 -5 c5 -13 15 -45 23 -73 l13 -50 18 73 c14 56
22 72 36 72 14 0 22 -17 37 -77 l19 -78 18 73 c16 65 36 95 52 79 3 -2 -8 -46
-23 -96 -23 -78 -31 -91 -49 -91 -18 0 -23 9 -34 60 -7 33 -16 62 -20 65 -3 2
-12 -25 -19 -60 -11 -57 -16 -65 -35 -65 -20 0 -26 12 -49 89 -32 106 -31 101
-12 101 9 0 20 -10 25 -22z m358 2 c2 -11 -8 -15 -40 -15 -52 0 -59 -23 -13
-43 55 -24 60 -29 63 -60 2 -22 -3 -34 -20 -46 -26 -18 -70 -21 -99 -6 -33 18
-21 30 24 24 33 -5 46 -2 57 11 13 15 12 19 -5 31 -10 8 -25 14 -34 14 -43 0
-70 78 -33 99 25 16 96 9 100 -9z m42 -247 c0 -27 -37 -100 -46 -91 -2 3 1 19
7 37 18 50 6 65 -44 57 -39 -5 -40 -5 -23 9 11 8 39 15 63 15 40 0 43 -2 43
-27z m-581 -7 c120 -62 293 -76 435 -37 82 22 103 21 70 -4 -75 -57 -260 -82
-370 -50 -71 20 -145 59 -175 91 -28 30 -20 30 40 0z"/>
<path d="M247 558 c-7 -20 12 -48 31 -48 23 0 42 19 42 42 0 14 -8 18 -34 18
-19 0 -36 -6 -39 -12z"/>
</g>
</svg>
