<?xml version="1.0" standalone="no"?>
<!DOCTYPE svg PUBLIC "-//W3C//DTD SVG 20010904//EN"
 "http://www.w3.org/TR/2001/REC-SVG-20010904/DTD/svg10.dtd">
<svg version="1.0" xmlns="http://www.w3.org/2000/svg"
 width="100.000000pt" height="100.000000pt" viewBox="0 0 100.000000 100.000000"
 preserveAspectRatio="xMidYMid meet">

<g transform="translate(0.000000,100.000000) scale(0.100000,-0.100000)"
fill="#000000" stroke="none">
<path d="M0 500 l0 -500 500 0 500 0 0 500 0 500 -500 0 -500 0 0 -500z m168
249 c-25 -14 -26 -117 -1 -126 10 -4 23 2 35 16 17 22 18 22 18 3 0 -11 -7
-23 -16 -26 -74 -29 -127 62 -69 119 13 14 30 25 37 25 8 0 6 -5 -4 -11z m52
-21 c0 -12 -1 -19 -3 -17 -1 2 -9 12 -16 22 -12 14 -11 17 3 17 10 0 16 -8 16
-22z m520 -3 c0 -8 -4 -15 -9 -15 -13 0 -22 16 -14 24 11 11 23 6 23 -9z
m-429 -35 c1 -5 2 -19 3 -29 0 -11 7 -26 15 -33 11 -11 12 -6 9 30 l-4 42 87
0 87 0 4 -45 c3 -38 0 -45 -14 -45 -14 0 -18 9 -18 40 0 22 -4 40 -9 40 -13 0
-19 -21 -15 -52 2 -22 -1 -28 -17 -28 -16 0 -20 6 -19 28 4 48 1 57 -11 45 -6
-6 -18 -9 -26 -6 -13 5 -15 -1 -11 -30 l4 -36 -68 2 c-73 3 -84 8 -75 32 10
24 36 19 30 -6 -4 -16 -2 -20 8 -17 18 6 21 68 4 68 -7 0 -15 -6 -18 -12 -2
-7 -8 -10 -12 -6 -4 4 -4 11 0 17 8 14 65 14 66 1z m288 -7 c9 -17 10 -17 16
0 5 12 18 17 46 17 21 0 39 -4 39 -10 0 -5 -4 -10 -10 -10 -5 0 -10 -6 -10
-14 0 -7 -9 -16 -19 -19 -17 -4 -18 -2 -8 14 6 10 8 21 4 25 -9 10 -13 5 -21
-28 -5 -24 -3 -27 21 -30 20 -2 29 -9 31 -25 4 -26 -29 -47 -60 -38 -18 6 -20
13 -15 51 l5 44 -34 0 c-37 0 -42 -10 -18 -34 13 -13 13 -16 1 -16 -8 0 -22 9
-32 20 -15 17 -16 24 -7 45 14 30 56 34 71 8z m143 -28 c3 -40 1 -45 -17 -45
-18 0 -20 5 -17 45 3 28 9 45 17 45 8 0 14 -17 17 -45z m86 33 c19 -19 14 -28
-13 -28 -18 0 -25 -5 -25 -19 0 -11 6 -22 13 -24 8 -4 6 -6 -4 -6 -9 -1 -24 8
-34 19 -37 41 24 97 63 58z m3 -61 c-10 -9 -11 -8 -5 6 3 10 9 15 12 12 3 -3
0 -11 -7 -18z m-660 -77 c13 -41 28 -53 30 -22 0 9 3 12 5 6 5 -12 -25 -89
-32 -82 -2 3 -13 29 -24 59 l-20 54 3 -58 c1 -33 -2 -57 -8 -57 -6 0 -9 28 -7
70 3 61 6 70 22 70 14 0 23 -12 31 -40z m84 -31 c0 -57 -3 -69 -16 -69 -13 0
-18 13 -21 58 -6 67 -3 77 20 79 15 1 17 -8 17 -68z m135 -2 c5 -62 4 -67 -15
-67 -18 0 -20 7 -20 70 0 57 3 70 15 68 11 -2 16 -21 20 -71z m60 0 c5 -62 4
-67 -15 -67 -18 0 -20 7 -20 70 0 57 3 70 15 68 11 -2 16 -21 20 -71z m-116 7
c23 -23 20 -34 -10 -34 -22 0 -25 -4 -21 -21 4 -15 1 -19 -11 -17 -24 5 -29
58 -6 75 23 17 29 16 48 -3z m200 0 c19 -18 21 -45 4 -62 -19 -19 -23 -15 -23
25 0 22 -5 38 -14 41 -10 3 -12 -5 -9 -37 3 -33 1 -41 -12 -39 -23 5 -26 59
-4 75 23 17 39 16 58 -3z m61 -34 c0 -34 -3 -40 -21 -40 -17 0 -20 5 -17 33 6
48 11 57 25 52 8 -3 13 -22 13 -45z m43 38 c5 -7 12 -28 14 -45 4 -28 1 -33
-16 -33 -18 0 -21 6 -21 45 -1 46 5 54 23 33z m-483 -163 c0 -61 15 -86 43
-69 13 9 17 25 17 68 0 31 5 56 10 56 16 0 5 -103 -13 -122 -39 -45 -92 -4
-92 72 0 41 3 50 18 50 14 0 17 -9 17 -55z m235 30 c0 -8 -4 -15 -9 -15 -13 0
-22 16 -14 24 11 11 23 6 23 -9z m370 0 c0 -8 -4 -15 -9 -15 -13 0 -22 16 -14
24 11 11 23 6 23 -9z m80 -25 c20 0 31 -6 35 -20 4 -11 11 -18 16 -15 13 8 11
-6 -5 -33 -12 -23 -13 -23 -31 17 -22 49 -45 54 -45 11 0 -17 5 -30 12 -30 8
0 9 -3 2 -10 -22 -22 -44 1 -44 46 0 24 5 44 10 44 6 0 11 8 11 18 1 11 3 9 6
-5 3 -18 11 -23 33 -23z m-500 -48 c0 -29 -4 -38 -18 -38 -14 0 -16 7 -14 38
3 30 1 38 -12 38 -12 0 -16 -10 -16 -40 0 -53 -27 -44 -32 10 -3 37 -2 39 27
42 48 5 65 -8 65 -50z m306 29 c-4 -5 -13 -8 -21 -4 -11 4 -15 -3 -15 -26 0
-47 -27 -40 -32 9 -3 37 -2 39 27 42 34 4 51 -5 41 -21z m-254 -22 c2 -22 1
-42 -2 -44 -14 -8 -28 13 -32 48 -3 30 -1 37 13 37 12 0 18 -11 21 -41z m53
21 c4 -11 11 -18 16 -15 12 8 11 -6 -4 -33 -13 -22 -13 -21 -35 23 -21 43 -21
45 -3 45 11 0 23 -9 26 -20z m75 3 c0 -7 5 -13 11 -13 6 0 9 7 5 15 -7 18 5
20 22 3 19 -19 14 -28 -13 -28 -18 0 -25 -5 -25 -20 0 -11 5 -20 12 -20 6 0 9
-3 6 -6 -15 -14 -48 18 -48 47 0 17 -4 28 -9 24 -5 -3 -12 -1 -15 4 -4 5 7 9
24 9 18 -1 30 -6 30 -15z m155 7 c-3 -6 5 -14 19 -20 28 -10 34 -31 13 -48
-14 -12 -57 -5 -57 9 0 13 14 11 28 -3 9 -9 15 -9 24 0 9 9 9 12 -3 12 -26 0
-51 24 -43 43 3 9 10 17 16 17 5 0 6 -5 3 -10z m35 0 c0 -5 -2 -10 -4 -10 -3
0 -8 5 -11 10 -3 6 -1 10 4 10 6 0 11 -4 11 -10z m52 -34 c2 -37 0 -44 -14
-43 -24 2 -31 87 -7 87 13 0 18 -11 21 -44z m158 40 c0 -11 -19 -15 -25 -6 -3
5 1 10 9 10 9 0 16 -2 16 -4z m-359 -69 c-10 -9 -11 -8 -5 6 3 10 9 15 12 12
3 -3 0 -11 -7 -18z m309 -39 c0 -11 -29 -23 -36 -15 -3 3 -4 10 0 15 7 11 36
11 36 0z"/>
<path d="M560 680 c0 -5 5 -10 10 -10 6 0 10 5 10 10 0 6 -4 10 -10 10 -5 0
-10 -4 -10 -10z"/>
<path d="M625 600 c-4 -7 -3 -16 3 -22 13 -13 54 0 49 15 -5 16 -43 21 -52 7z"/>
<path d="M790 680 c0 -5 5 -10 10 -10 6 0 10 5 10 10 0 6 -4 10 -10 10 -5 0
-10 -4 -10 -10z"/>
<path d="M300 515 c0 -8 5 -15 10 -15 6 0 10 7 10 15 0 8 -4 15 -10 15 -5 0
-10 -7 -10 -15z"/>
</g>
</svg>
