<?xml version="1.0" standalone="no"?>
<!DOCTYPE svg PUBLIC "-//W3C//DTD SVG 20010904//EN"
 "http://www.w3.org/TR/2001/REC-SVG-20010904/DTD/svg10.dtd">
<svg version="1.0" xmlns="http://www.w3.org/2000/svg"
 width="100.000000pt" height="100.000000pt" viewBox="0 0 100.000000 100.000000"
 preserveAspectRatio="xMidYMid meet">

<g transform="translate(0.000000,100.000000) scale(0.100000,-0.100000)"
fill="#000000" stroke="none">
<path d="M147 593 c-4 -3 -7 -21 -7 -40 0 -29 3 -33 25 -33 18 0 25 5 25 20 0
17 7 20 50 20 43 0 50 3 50 20 0 18 -7 20 -68 20 -38 0 -72 -3 -75 -7z"/>
<path d="M330 494 c0 -104 0 -105 23 -102 21 3 23 7 26 66 1 18 7 22 37 22 54
0 74 15 74 55 0 47 -29 65 -102 65 l-58 0 0 -106z m117 50 c7 -19 -13 -34 -44
-34 -18 0 -23 6 -23 25 0 21 5 25 30 25 19 0 33 -6 37 -16z"/>
<path d="M530 560 c0 -33 3 -40 20 -40 13 0 20 7 20 20 0 17 7 20 50 20 43 0
50 3 50 20 0 18 -7 20 -70 20 l-70 0 0 -40z"/>
<path d="M710 495 l0 -105 70 0 c63 0 70 2 70 20 0 17 -7 20 -50 20 l-50 0 0
85 c0 78 -2 85 -20 85 -19 0 -20 -7 -20 -105z"/>
<path d="M190 495 c0 -11 12 -15 45 -15 33 0 45 4 45 15 0 11 -12 15 -45 15
-33 0 -45 -4 -45 -15z"/>
<path d="M570 495 c0 -11 12 -15 45 -15 33 0 45 4 45 15 0 11 -12 15 -45 15
-33 0 -45 -4 -45 -15z"/>
<path d="M152 471 c-8 -5 -12 -22 -10 -42 l3 -34 73 -3 c67 -3 72 -1 72 18 0
17 -6 20 -49 20 -43 0 -50 3 -53 22 -3 24 -17 32 -36 19z"/>
<path d="M530 436 c0 -40 3 -46 21 -46 18 0 20 5 17 42 -2 31 -8 44 -20 46
-15 3 -18 -4 -18 -42z"/>
</g>
</svg>
