<?xml version="1.0" standalone="no"?>
<!DOCTYPE svg PUBLIC "-//W3C//DTD SVG 20010904//EN"
 "http://www.w3.org/TR/2001/REC-SVG-20010904/DTD/svg10.dtd">
<svg version="1.0" xmlns="http://www.w3.org/2000/svg"
 width="100.000000pt" height="100.000000pt" viewBox="0 0 100.000000 100.000000"
 preserveAspectRatio="xMidYMid meet">

<g transform="translate(0.000000,100.000000) scale(0.100000,-0.100000)"
fill="#000000" stroke="none">
<path d="M0 500 l0 -500 500 0 500 0 0 500 0 500 -500 0 -500 0 0 -500z m631
376 c37 -8 90 -25 119 -37 51 -22 51 -23 28 -35 -12 -7 -52 -21 -87 -30 -62
-17 -63 -17 -80 3 -23 30 -54 43 -100 43 -31 0 -41 4 -46 20 -9 28 -25 25 -25
-4 0 -16 -7 -27 -21 -31 -11 -4 -23 -15 -27 -25 -7 -17 -12 -16 -89 8 -46 14
-83 28 -83 32 0 13 108 53 170 63 57 10 179 6 241 -7z m-356 -97 c39 -12 76
-24 84 -26 10 -2 4 -14 -20 -39 -38 -40 -44 -40 -183 -7 l-69 17 48 43 c26 24
53 42 59 39 6 -2 43 -15 81 -27z m598 -19 c34 -33 39 -42 27 -49 -15 -10 -162
-37 -232 -44 l-38 -3 0 43 c0 38 3 43 23 43 12 1 51 11 87 24 36 13 71 24 78
25 7 0 32 -17 55 -39z m-671 -81 c56 -12 111 -28 120 -36 12 -11 26 -13 45 -9
15 4 42 10 58 13 l30 5 -42 -41 -42 -41 -171 0 c-165 0 -170 1 -170 21 0 34
42 121 56 115 7 -3 59 -15 116 -27z m746 -13 c6 -13 14 -40 17 -60 l7 -36
-182 0 -182 0 7 33 c4 17 9 35 11 38 2 3 38 9 81 13 43 4 105 13 138 20 84 19
90 19 103 -8z m-590 -139 l-3 -32 -107 -16 c-58 -9 -123 -22 -143 -29 -31 -10
-39 -10 -46 1 -14 22 -30 89 -24 99 3 5 78 9 166 9 l160 0 -3 -32z m604 -5
c-1 -19 -9 -46 -17 -61 l-14 -28 -71 18 c-39 10 -109 24 -156 30 -75 11 -85
15 -90 35 -11 42 -1 45 179 42 l172 -3 -3 -33z m-602 -67 c0 -13 22 -15 140
-15 122 0 140 2 140 16 0 14 8 15 55 9 64 -8 203 -40 212 -48 8 -9 -15 -35
-59 -67 l-36 -27 -89 28 c-48 16 -106 31 -128 35 l-40 8 38 10 c68 18 38 26
-99 26 -127 0 -164 -9 -93 -24 18 -3 30 -8 28 -10 -3 -3 -37 -12 -76 -20 -40
-8 -93 -24 -119 -35 -45 -21 -47 -21 -73 -2 -34 25 -86 80 -80 85 9 9 195 45
237 45 31 1 42 -3 42 -14z m77 -99 c-3 -8 -26 -18 -51 -21 -44 -7 -46 -9 -46
-41 0 -19 -2 -34 -5 -34 -17 0 -115 43 -115 51 0 14 69 40 145 53 39 7 72 12
74 10 2 -2 1 -10 -2 -18z m279 -18 c35 -11 64 -24 64 -28 0 -7 -55 -30 -107
-45 -21 -6 -23 -3 -23 29 0 31 -3 36 -24 36 -34 0 -76 17 -76 31 0 16 84 4
166 -23z m-291 -28 c3 -5 -1 -10 -9 -10 -22 0 -20 -17 2 -23 14 -4 14 -6 -5
-12 -12 -4 -24 -14 -26 -24 -3 -9 -5 5 -6 32 -1 40 2 47 18 47 11 0 23 -4 26
-10z m35 -41 c0 -21 -4 -39 -10 -39 -5 0 -10 21 -10 46 0 27 4 43 10 39 6 -3
10 -24 10 -46z m68 35 c12 -8 22 -21 22 -29 0 -21 -29 -45 -56 -45 -21 0 -24
4 -24 38 0 56 16 66 58 36z m82 6 c0 -5 -7 -10 -15 -10 -8 0 -15 -4 -15 -10 0
-5 8 -10 17 -10 15 0 14 -2 -3 -15 -17 -13 -17 -14 -1 -15 27 0 20 -20 -8 -20
-23 0 -25 4 -25 45 0 41 2 45 25 45 14 0 25 -4 25 -10z m-460 -139 c0 -5 -9
-11 -21 -14 -22 -6 -22 -28 1 -35 9 -3 11 1 7 12 -5 12 -3 16 5 14 23 -8 14
-33 -12 -33 -28 0 -39 27 -20 50 14 16 40 20 40 6z m55 -1 c3 -5 -2 -10 -12
-11 -16 0 -16 -1 2 -9 17 -7 17 -9 3 -9 -10 -1 -18 -5 -18 -10 0 -5 8 -12 18
-14 13 -4 11 -5 -5 -6 -20 -1 -23 4 -23 34 0 34 20 49 35 25z m39 -6 c8 -22 8
-26 -3 -19 -5 3 -12 -5 -14 -17 -3 -15 -5 -9 -6 15 -1 38 12 50 23 21z m26
-21 c0 -23 -4 -33 -9 -28 -9 9 -4 65 5 65 2 0 4 -17 4 -37z m50 27 c0 -5 -5
-10 -12 -10 -6 0 -4 -6 7 -13 20 -16 13 -37 -13 -37 -15 0 -15 2 -2 10 13 8
13 11 1 19 -8 5 -11 16 -8 25 7 18 27 22 27 6z m60 -28 c0 -31 16 -19 23 18 3
17 5 13 4 -10 -2 -28 -6 -35 -22 -35 -15 0 -21 8 -23 34 -2 21 0 31 7 26 6 -3
11 -18 11 -33z m93 20 c3 15 5 9 6 -14 1 -42 -13 -51 -25 -15 l-8 22 -7 -25
c-6 -21 -7 -18 -8 15 l0 40 19 -23 19 -22 4 22z m66 -14 c12 -34 6 -52 -10
-28 -8 13 -10 13 -18 0 -6 -8 -12 -12 -16 -9 -7 8 15 69 25 69 4 0 13 -14 19
-32z m76 22 c3 -5 1 -10 -6 -10 -9 0 -9 -4 1 -15 14 -17 5 -35 -18 -35 -15 0
-15 2 -2 10 13 8 13 11 1 19 -8 5 -11 16 -8 25 7 18 23 21 32 6z m115 -18 c1
-13 4 -12 13 6 16 28 27 19 26 -22 0 -25 -2 -27 -8 -11 -8 19 -8 19 -19 0 -10
-20 -11 -20 -18 -1 -7 19 -8 19 -15 0 -6 -15 -8 -13 -8 12 -1 17 2 34 5 37 10
10 24 -2 24 -21z m160 18 c0 -5 -5 -10 -11 -10 -8 0 -8 -4 1 -15 14 -17 5 -35
-18 -35 -15 0 -15 2 -2 10 13 8 13 11 1 19 -17 11 -7 41 14 41 8 0 15 -4 15
-10z m-240 -25 c0 -14 5 -25 10 -25 6 0 10 11 10 25 0 14 5 25 10 25 6 0 10
-8 10 -17 -1 -50 -53 -59 -58 -10 -2 15 1 27 7 27 6 0 11 -11 11 -25z m150 0
c0 -14 5 -25 10 -25 6 0 10 11 10 25 0 14 5 25 10 25 6 0 10 -8 10 -17 -1 -50
-53 -59 -58 -10 -2 15 1 27 7 27 6 0 11 -11 11 -25z"/>
<path d="M490 275 c0 -20 4 -26 18 -23 9 2 17 12 17 23 0 11 -8 21 -17 23 -14
3 -18 -3 -18 -23z"/>
</g>
</svg>
