<?xml version="1.0" standalone="no"?>
<!DOCTYPE svg PUBLIC "-//W3C//DTD SVG 20010904//EN"
 "http://www.w3.org/TR/2001/REC-SVG-20010904/DTD/svg10.dtd">
<svg version="1.0" xmlns="http://www.w3.org/2000/svg"
 width="100.000000pt" height="100.000000pt" viewBox="0 0 100.000000 100.000000"
 preserveAspectRatio="xMidYMid meet">

<g transform="translate(0.000000,100.000000) scale(0.100000,-0.100000)"
fill="#000000" stroke="none">
<path d="M713 460 c-30 -12 -38 -46 -19 -75 26 -40 86 -28 86 17 0 13 -8 18
-27 18 -27 -1 -27 -1 -9 -15 17 -13 17 -15 3 -21 -23 -8 -37 3 -37 32 0 24 8
28 43 25 21 -3 23 15 1 23 -9 3 -16 6 -17 5 -1 0 -12 -4 -24 -9z"/>
<path d="M840 430 c-11 -21 -20 -47 -20 -57 1 -17 1 -17 14 0 17 21 34 22 58
0 17 -15 18 -15 18 1 0 17 -37 96 -45 96 -3 0 -14 -18 -25 -40z m30 -16 c0 -8
-5 -12 -10 -9 -6 4 -8 11 -5 16 9 14 15 11 15 -7z"/>
<path d="M100 410 c0 -27 5 -50 10 -50 6 0 10 14 10 32 0 30 1 31 15 12 15
-19 15 -19 30 0 14 19 15 18 15 -12 0 -18 5 -32 10 -32 6 0 10 23 10 50 0 37
-4 50 -14 50 -8 0 -18 -9 -21 -20 -3 -11 -10 -20 -15 -20 -5 0 -12 9 -15 20
-3 11 -13 20 -21 20 -10 0 -14 -13 -14 -50z"/>
<path d="M252 448 c-20 -20 -15 -66 9 -78 47 -26 100 25 72 69 -13 20 -64 26
-81 9z m64 -23 c7 -18 -13 -45 -33 -45 -17 0 -27 24 -19 45 7 20 45 19 52 0z"/>
<path d="M380 411 c0 -28 5 -51 10 -51 6 0 10 9 10 20 0 11 4 20 10 20 5 0 14
-9 20 -20 18 -33 28 -23 26 28 -1 47 -1 47 -38 50 l-38 3 0 -50z m56 28 c8
-14 -18 -31 -30 -19 -9 9 0 30 14 30 5 0 12 -5 16 -11z"/>
<path d="M500 410 c0 -27 5 -50 10 -50 6 0 10 23 10 50 0 28 -4 50 -10 50 -5
0 -10 -22 -10 -50z"/>
<path d="M560 409 c0 -31 4 -48 10 -44 6 3 10 18 10 33 l0 27 26 -33 c14 -18
30 -30 35 -27 12 8 12 95 -1 95 -10 0 -14 -14 -11 -37 3 -20 -9 -15 -31 12
-29 37 -38 31 -38 -26z"/>
</g>
</svg>
