<?xml version="1.0" standalone="no"?>
<!DOCTYPE svg PUBLIC "-//W3C//DTD SVG 20010904//EN"
 "http://www.w3.org/TR/2001/REC-SVG-20010904/DTD/svg10.dtd">
<svg version="1.0" xmlns="http://www.w3.org/2000/svg"
 width="100.000000pt" height="100.000000pt" viewBox="0 0 100.000000 100.000000"
 preserveAspectRatio="xMidYMid meet">

<g transform="translate(0.000000,100.000000) scale(0.100000,-0.100000)"
fill="#000000" stroke="none">
<path d="M395 797 c-62 -21 -84 -36 -105 -70 -44 -71 -13 -151 75 -196 42 -22
64 -26 145 -28 91 -2 93 -1 35 7 -130 20 -195 67 -195 139 0 74 79 120 184
106 105 -14 175 -63 222 -158 27 -52 49 -51 34 2 -22 76 -86 147 -163 181 -61
27 -176 35 -232 17z"/>
<path d="M196 547 c-24 -112 52 -255 168 -315 41 -21 66 -26 126 -26 65 -1 84
3 141 31 36 18 74 42 85 54 19 22 19 22 -1 14 -94 -39 -133 -47 -201 -43 -165
11 -288 116 -304 262 -6 61 -6 61 -14 23z"/>
<path d="M780 498 c-62 -54 -154 -91 -241 -96 -90 -5 -143 9 -216 59 l-47 33
23 -32 c54 -76 146 -118 241 -109 66 6 168 48 201 83 28 30 36 30 42 2 4 -19
4 -19 6 5 0 15 8 41 16 57 19 37 18 37 -25 -2z"/>
</g>
</svg>
